<?xml version="1.0" encoding="iso-8859-1"?>
<!-- Uploaded to: SVG Repo, www.svgrepo.com, Generator: SVG Repo Mixer Tools -->
<svg fill="#000000" height="800px" width="800px" version="1.1" id="Capa_1" xmlns="http://www.w3.org/2000/svg" xmlns:xlink="http://www.w3.org/1999/xlink" 
	 viewBox="0 0 296.766 296.766" xml:space="preserve">
<g>
	<path d="M296.739,153.277c-1.941-23.778-11.755-41.741-29.191-53.509c4.114-7.48,5.008-15.318,2.635-23.415
		c-3.118-10.64-11.498-20.034-19.284-27.821c-0.854-0.854-1.726-1.711-2.61-2.561c9.639-19.032,20.429-29.403,20.608-29.572
		c2.179-2.029,3.051-5.1,2.263-7.972c-0.788-2.871-3.104-5.066-6.014-5.7c-6.586-1.433-13.003-2.159-19.074-2.159
		c-22.787,0-38.762,9.954-50.063,22.339c-7.885-22.761-34.848-22.772-47.46-22.772c-12.612,0-39.574,0.012-47.458,22.772
		C89.788,10.521,73.813,0.567,51.026,0.567c-6.071,0-12.488,0.727-19.074,2.159c-2.909,0.634-5.226,2.829-6.014,5.7
		c-0.788,2.871,0.084,5.942,2.263,7.972c0.187,0.174,10.848,10.317,20.44,29.109c-1.012,0.958-2.046,1.962-3.108,3.024
		c-9.157,9.157-29.012,29.019-16.561,51.404C11.69,111.706,1.958,129.61,0.026,153.277c-0.243,2.975,1.209,5.827,3.737,7.415
		c1.295,0.813,2.771,1.219,4.249,1.219c1.407,0,2.817-0.368,4.072-1.105c0.201-0.118,19.882-11.401,58.493-12.16l41.336,54.646
		c-1.352,4.965-1.25,10.991,1.313,17.758c-2.115,0.396-4.33,1.05-6.578,2.107c-7.715,3.633-13.385,10.645-16.853,20.841
		c-2.354,6.921-7.815,8.803-12.155,8.265c-4.491-0.564-9.498-3.828-10.084-11.299c-0.346-4.405-4.188-7.692-8.601-7.351
		c-4.405,0.346-7.696,4.196-7.351,8.601c1.085,13.838,10.747,24.256,24.044,25.924c1.184,0.148,2.355,0.222,3.513,0.222
		c11.654-0.001,21.76-7.383,25.782-19.209c1.99-5.854,4.811-9.707,8.381-11.45c4.477-2.189,9.244-0.571,9.294-0.555l-0.101-0.037
		l0.246-0.648c0.043,0.051,0.09,0.102,0.134,0.152l-7.271,50.89c-0.328,2.296,0.356,4.621,1.876,6.373
		c1.52,1.752,3.725,2.759,6.044,2.759h50.001c0.006,0,0.014,0,0.02,0c4.419,0,8-3.582,8-8c0-0.547-0.055-1.082-0.159-1.598
		l-6.434-50.046c1.378-0.35,5.154-1.044,8.746,0.71c3.57,1.743,6.391,5.596,8.381,11.45c4.023,11.827,14.127,19.21,25.783,19.209
		c1.156,0,2.33-0.073,3.513-0.222c13.296-1.668,22.958-12.086,24.043-25.924c0.346-4.404-2.945-8.255-7.351-8.601
		c-4.4-0.341-8.255,2.945-8.601,7.351c-0.586,7.471-5.593,10.735-10.083,11.299c-4.33,0.54-9.802-1.342-12.156-8.265
		c-3.468-10.196-9.138-17.208-16.853-20.841c-2.231-1.05-4.431-1.701-6.532-2.099c2.397-6.324,2.644-12.001,1.564-16.77
		l42.062-55.607c37.743,0.985,56.988,12.008,57.153,12.104c1.268,0.762,2.694,1.143,4.12,1.143c1.464,0,2.928-0.401,4.22-1.203
		C295.534,159.142,296.983,156.266,296.739,153.277z M164.455,280.633h-31.683l4.392-30.735c3.393,2.629,7.174,5.292,11.385,7.979
		c4.429-2.825,8.376-5.625,11.901-8.387L164.455,280.633z M175.758,190.554c-0.948-0.543-1.915-0.977-2.88-1.285
		c-11.86-3.787-20.259,2.192-24.329,11.21c-4.895-8.075-12.47-14.997-24.326-11.21c-0.726,0.231-1.452,0.536-2.173,0.902
		l-31.419-41.538h116.836L175.758,190.554z M114.872,37.396c0-16.295,7.868-21.263,33.676-21.263c2.875,0,5.515,0.065,7.958,0.197
		c5.127,0.507,10.75,1.422,13.813,4.31c1.443,1.36,2.159,3.76,0.737,5.712c-4.811,6.6-18.819,5.765-27.233,3.062
		c-4.207-1.351-8.713,0.964-10.063,5.171c-1.351,4.207,0.964,8.712,5.171,10.063c5.653,1.815,11.955,2.783,17.868,2.783
		c1.559,0,3.09-0.067,4.575-0.204c8.856-0.815,15.995-4.016,20.841-9.297c-0.074,6.09-1.408,11.837-3.72,16.926
		c-0.231,0.46-0.446,0.926-0.664,1.391c-5.798,11.564-16.747,19.386-29.282,19.386C129.979,75.633,114.872,58.48,114.872,37.396z
		 M245.064,65.606c3.271,3.983,6.604,8.609,6.728,12.822c0.058,1.982-1.133,4.186-3.52,4.56
		c-8.062,1.254-17.382-9.232-21.422-17.092c-2.019-3.93-6.841-5.48-10.771-3.459c-3.93,2.02-5.479,6.842-3.459,10.771
		c3.43,6.674,8.549,13.123,14.046,17.693c6.498,5.403,13.423,8.192,20.239,8.192c0.361,0,0.723-0.026,1.083-0.042
		c-7.712,7.53-17.887,11.846-28.006,11.846c-8.7,0-16.681-3.188-22.471-8.979c-13.13-13.13-11.683-35.94,3.225-50.85
		c4.783-4.783,9.241-7.107,13.628-7.107c8.227,0,17.365,8.029,25.22,15.885C241.614,61.875,243.432,63.786,245.064,65.606z
		 M82.067,43.961c4.387,0,8.845,2.324,13.627,7.106c14.908,14.91,16.356,37.721,3.226,50.851c-5.79,5.791-13.771,8.979-22.471,8.979
		c-10.119,0-20.294-4.316-28.006-11.846c0.36,0.016,0.722,0.042,1.083,0.042c6.816,0,13.741-2.79,20.239-8.192
		c5.497-4.57,10.616-11.02,14.046-17.693c2.02-3.93,0.471-8.752-3.459-10.771c-3.931-2.023-8.752-0.471-10.771,3.459
		c-4.04,7.859-13.379,18.344-21.422,17.092c-2.387-0.374-3.577-2.577-3.519-4.561c0.123-4.212,3.456-8.838,6.727-12.821
		c1.633-1.819,3.45-3.73,5.48-5.76C64.702,51.99,73.841,43.961,82.067,43.961z"/>
</g>
</svg>